HIERARCHY
ROOT Hips
{
	OFFSET 0.000000 0.000000 0.000000
	CHANNELS 6 Xposition Yposition Zposition Yrotation Xrotation Zrotation
	JOINT Chest
	{
		OFFSET 0.000000 -0.009281 11.569106
		CHANNELS 3 Yrotation Xrotation Zrotation
		JOINT Chest2
		{
			OFFSET -0.000000 0.016865 9.269641
			CHANNELS 3 Yrotation Xrotation Zrotation
			JOINT Chest3
			{
				OFFSET -0.000000 0.000001 8.374491
				CHANNELS 3 Yrotation Xrotation Zrotation
				JOINT Chest4
				{
					OFFSET -0.000000 0.000001 8.374493
					CHANNELS 3 Yrotation Xrotation Zrotation
					JOINT Neck
					{
						OFFSET -0.000000 0.000002 12.152554
						CHANNELS 3 Yrotation Xrotation Zrotation
						JOINT Head
						{
							OFFSET -0.000000 0.040101 7.802319
							CHANNELS 3 Yrotation Xrotation Zrotation
							End Site
							{
								OFFSET -0.000000 0.020947 14.853096
							}
						}
					}
					JOINT RightCollar
					{
						OFFSET 2.894404 0.000001 6.791374
						CHANNELS 3 Yrotation Xrotation Zrotation
						JOINT RightShoulder
						{
							OFFSET 13.574684 0.000001 0.000000
							CHANNELS 3 Yrotation Xrotation Zrotation
							JOINT RightElbow
							{
								OFFSET 23.923903 0.000002 0.000000
								CHANNELS 3 Yrotation Xrotation Zrotation
								JOINT RightWrist
								{
									OFFSET 19.846718 0.012767 0.000000
									CHANNELS 3 Yrotation Xrotation Zrotation
									End Site
									{
										OFFSET 14.973145 0.000001 0.000000
									}
								}
							}
						}
					}
					JOINT LeftCollar
					{
						OFFSET -2.894404 0.000001 6.791374
						CHANNELS 3 Yrotation Xrotation Zrotation
						JOINT LeftShoulder
						{
							OFFSET -13.574684 -0.000001 0.000000
							CHANNELS 3 Yrotation Xrotation Zrotation
							JOINT LeftElbow
							{
								OFFSET -23.923903 -0.000002 0.000000
								CHANNELS 3 Yrotation Xrotation Zrotation
								JOINT LeftWrist
								{
									OFFSET -19.846718 0.012763 0.000000
									CHANNELS 3 Yrotation Xrotation Zrotation
									End Site
									{
										OFFSET -14.973145 -0.000001 0.000000
									}
								}
							}
						}
					}
				}
			}
		}
	}
	JOINT RightHip
	{
		OFFSET 9.469263 0.004643 0.045487
		CHANNELS 3 Yrotation Xrotation Zrotation
		JOINT RightKnee
		{
			OFFSET 0.000000 0.002661 -40.478676
			CHANNELS 3 Yrotation Xrotation Zrotation
			JOINT RightAnkle
			{
				OFFSET 0.000000 0.049106 -35.224068
				CHANNELS 3 Yrotation Xrotation Zrotation
				JOINT RightToe
				{
					OFFSET -0.000001 12.539529 -6.151390
					CHANNELS 3 Yrotation Xrotation Zrotation
					End Site
					{
						OFFSET -0.000001 5.044994 -1.291870
					}
				}
			}
		}
	}
	JOINT LeftHip
	{
		OFFSET -9.469263 0.004641 0.045487
		CHANNELS 3 Yrotation Xrotation Zrotation
		JOINT LeftKnee
		{
			OFFSET 0.000000 0.002661 -40.478676
			CHANNELS 3 Yrotation Xrotation Zrotation
			JOINT LeftAnkle
			{
				OFFSET 0.000000 0.049106 -35.224068
				CHANNELS 3 Yrotation Xrotation Zrotation
				JOINT LeftToe
				{
					OFFSET -0.000001 12.539529 -6.151390
					CHANNELS 3 Yrotation Xrotation Zrotation
					End Site
					{
						OFFSET -0.000001 5.044994 -1.291870
					}
				}
			}
		}
	}
}
MOTION
Frames: 7
Frame Time: 0.016667
10.722090 6.734509 83.040108 -5.360046 -2.079475 -108.827521 -0.271755 -3.061436 0.875016 -0.115358 -1.359617 0.386729 -0.115358 -1.359617 0.386732 -0.085654 -1.019787 0.289776 1.042598 -17.185200 -2.422278 1.089205 4.267623 -4.118317 4.566135 20.806865 -3.461393 35.959536 55.139810 31.403437 45.843127 1.408561 78.721359 -4.348730 33.339615 17.378684 -5.111373 16.047418 -2.182073 -36.759665 53.785004 -32.357997 -47.498816 7.736741 -78.116300 -1.314833 43.106109 -14.237960 -0.426304 -7.071024 -3.534247 1.385985 -2.750046 -6.337140 -0.417452 3.661264 2.375015 -0.004595 -0.036027 -0.002810 -0.612057 -7.910867 0.644518 0.650579 -1.508651 1.986536 -0.165542 3.851948 1.243788 -0.031549 -0.009814 0.001451 
10.732425 6.727181 83.044067 -5.337374 -2.054030 -108.793398 -0.278491 -3.038810 0.853525 -0.119720 -1.350370 0.375923 -0.119720 -1.350370 0.375922 -0.088955 -1.012852 0.281665 1.033325 -17.218022 -2.403846 1.079243 4.206695 -4.087135 4.474363 20.807485 -3.648554 36.083353 55.504033 31.447270 40.556154 0.748860 77.939166 -9.616211 31.334418 18.066591 -5.229615 16.285505 -2.312162 -36.843263 54.424631 -32.471221 -43.032319 7.532415 -76.479356 2.531497 36.599955 -15.666535 -0.435555 -7.054257 -3.461384 1.389232 -2.745879 -6.392129 -0.425970 3.670780 2.335600 0.000744 -0.029790 -0.002100 -0.623463 -7.900889 0.661584 0.658494 -1.476764 1.957052 -0.176174 3.832317 1.222367 -0.023327 -0.003750 0.002432 
10.741562 6.718977 83.046928 -5.317476 -2.025025 -108.752273 -0.271399 -3.005744 0.811518 -0.118125 -1.336578 0.355707 -0.118125 -1.336578 0.355708 -0.087811 -1.002503 0.266511 0.998287 -17.251919 -2.368194 1.027617 4.143361 -4.033015 4.373740 20.798619 -3.784739 35.976372 55.653898 31.341658 33.710108 0.364126 76.963145 -17.417223 25.869902 18.287000 -5.267100 16.636679 -2.250985 -36.167474 54.293379 -31.833241 -33.055660 7.948000 -74.084091 7.465650 29.182595 -16.999497 -0.447421 -7.039478 -3.368380 1.396190 -2.738882 -6.483857 -0.439030 3.678402 2.295804 0.006487 -0.023775 -0.001462 -0.633312 -7.890186 0.642561 0.658111 -1.448546 1.946091 -0.186462 3.816464 1.214408 -0.014217 -0.000523 0.003171 
10.749381 6.709878 83.046150 -5.299107 -2.010640 -108.718833 -0.252906 -2.982183 0.773550 -0.111973 -1.325308 0.337608 -0.111973 -1.325308 0.337604 -0.083243 -0.994044 0.252951 0.959904 -17.267975 -2.334751 0.968604 4.113047 -3.984294 4.403447 21.271016 -3.716920 35.328136 55.463161 30.995142 27.535798 0.438098 75.866422 -21.913795 21.251671 19.194541 -5.149353 16.788371 -1.982851 -35.724645 54.258804 -31.627659 -22.136839 7.728422 -71.205214 11.214296 23.153185 -17.908886 -0.445531 -7.040631 -3.306322 1.400547 -2.722332 -6.563248 -0.447580 3.697709 2.288000 0.009122 -0.030704 -0.001192 -0.632743 -7.881077 0.590033 0.657260 -1.427003 1.961576 -0.192019 3.813913 1.213319 -0.008677 -0.008722 0.003748 
10.757174 6.701651 83.044426 -5.295444 -2.005174 -108.698499 -0.245081 -2.992628 0.762737 -0.107885 -1.328912 0.332907 -0.107886 -1.328913 0.332906 -0.080186 -0.996744 0.249434 0.946293 -17.248745 -2.323607 0.946826 4.148566 -3.968585 4.518703 21.849755 -3.600988 34.695578 55.395061 30.567422 26.259478 0.061769 75.315034 -22.472914 20.967926 19.918858 -5.026471 16.784968 -1.697876 -35.588264 54.334875 -31.652456 -14.795453 6.674016 -69.523498 11.090808 27.012331 -17.412553 -0.439964 -7.052128 -3.293377 1.398053 -2.707632 -6.592447 -0.451481 3.704173 2.278169 0.008903 -0.031345 -0.001283 -0.634541 -7.881647 0.535841 0.663085 -1.425983 1.984835 -0.194975 3.820860 1.233807 -0.008568 -0.013116 0.003832 
10.761953 6.694394 83.044380 -5.310454 -2.005380 -108.683657 -0.249639 -3.018189 0.777707 -0.107795 -1.341039 0.340847 -0.107795 -1.341040 0.340848 -0.080094 -1.005840 0.255387 0.958761 -17.204388 -2.335488 0.964693 4.231064 -3.986678 4.569663 21.910303 -3.598895 34.306917 55.294363 30.135293 31.074335 0.082425 75.937271 -19.001834 23.558163 19.885324 -5.119276 16.882780 -1.764646 -34.923382 54.029617 -31.026329 -15.614473 6.513441 -69.921466 5.406583 37.281525 -17.425199 -0.439006 -7.072882 -3.336419 1.395988 -2.702566 -6.567693 -0.455542 3.697160 2.278094 0.008217 -0.020614 -0.000224 -0.638052 -7.891877 0.480919 0.672617 -1.446590 1.998896 -0.194301 3.827217 1.263253 -0.014092 -0.005419 0.002098 
10.764668 6.687472 83.044342 -5.326946 -2.002224 -108.668631 -0.254651 -3.032091 0.811405 -0.109368 -1.347344 0.356697 -0.109368 -1.347344 0.356696 -0.081237 -1.010573 0.267269 0.982376 -17.155794 -2.363355 0.997526 4.321494 -4.030504 4.509192 21.472154 -3.646904 34.138996 54.958564 29.723371 38.124244 0.823283 77.457555 -13.301227 26.171002 18.438856 -5.188196 16.762794 -1.935924 -34.491144 53.546801 -30.398098 -24.312263 7.239146 -72.455753 -0.613962 42.840572 -17.358608 -0.444026 -7.092326 -3.422879 1.398363 -2.708892 -6.502278 -0.463948 3.710672 2.292580 0.009007 -0.021187 -0.000228 -0.648363 -7.894761 0.457555 0.685457 -1.473006 1.992000 -0.190943 3.838632 1.276630 -0.020639 -0.004277 0.000877 
